{"title":"Shameless Season 1 Complete MP4","uid":9704448,"size":5660689837,"categoryP":"video","categoryS":"hd___tv_shows","magnet":"?xt=urn:btih:0bb45b62379aeb205ddd17c5520028b03df82751&amp;dn=Shameless+Season+1+Complete+MP4&amp;tr=udp%3A%2F%2Ftracker.openbittorrent.com%3A80&amp;tr=udp%3A%2F%2Fopen.demonii.com%3A1337&amp;tr=udp%3A%2F%2Ftracker.coppersurfer.tk%3A6969&amp;tr=udp%3A%2F%2Fexodus.desync.com%3A6969","seeders":0,"leechers":1,"uploader":"PapaFatHead","files":12,"time":1394046505,"description":"General\nComplete name                  : Shameless Season 1 Complete MP4\nFormat                         : MPEG-4\nFormat profile                 : Base Media / Version 2\nCodec ID                       : mp42\nOverall bit rate mode          : Variable\nOverall bit rate               : 1 152 Kbps\n\n\nVideo\nID                             : 1\nFormat                         : AVC\nFormat/Info                    : Advanced Video Codec\nFormat profile                 : &lt;a class=&quot;__cf_email__&quot; href=&quot;/cdn-cgi/l/email-protection&quot; data-cfemail=&quot;ce8cafbdaba2a7a0ab8e82fde0fe&quot;&gt;[email&amp;#160;protected]&lt;/a&gt;&lt;script cf-hash='f9e31' type=&quot;text/javascript&quot;&gt;\n/* &lt;![CDATA[ */!function(){try{var t=&quot;currentScript&quot;in document?document.currentScript:function(){for(var t=document.getElementsByTagName(&quot;script&quot;),e=t.length;e--;)if(t[e].getAttribute(&quot;cf-hash&quot;))return t[e]}();if(t&amp;&amp;t.previousSibling){var e,r,n,i,c=t.previousSibling,a=c.getAttribute(&quot;data-cfemail&quot;);if(a){for(e=&quot;&quot;,r=parseInt(a.substr(0,2),16),n=2;a.length-n;n+=2)i=parseInt(a.substr(n,2),16)^r,e+=String.fromCharCode(i);e=document.createTextNode(e),c.parentNode.replaceChild(e,c)}}}catch(u){}}();/* ]]&gt; */&lt;/script&gt;\nFormat settings, CABAC         : No\nFormat settings, ReFrames      : 2 frames\nCodec ID                       : avc1\nCodec ID/Info                  : Advanced Video Coding\nBit rate                       : 989 Kbps\nWidth                          : 852 pixels\nHeight                         : 480 pixels\nDisplay aspect ratio           : 16:9\nOriginal display aspect ratio  : 16:9\nFrame rate mode                : Variable\nFrame rate                     : 23.976 fps\nMinimum frame rate             : 23.810 fps\nMaximum frame rate             : 30.000 fps\nColor space                    : YUV\nChroma subsampling             : 4:2:0\nBit depth                      : 8 bits\nScan type                      : Progressive\nBits/(Pixel*Frame)             : 0.101\nStream size                    : 410 MiB (86%)\nWriting library                : x264 core 130 r2273 b3065e6\n\n\nAudio\nID                             : 2\nFormat                         : AAC\nFormat/Info                    : Advanced Audio Codec\nFormat profile                 : LC\nCodec ID                       : 40\nBit rate mode                  : Variable\nBit rate                       : 160 Kbps\nMaximum bit rate               : 284 Kbps\nChannel(s)                     : 2 channels\nChannel positions              : Front: L R\nSampling rate                  : 48.0 KHz\nCompression mode               : Lossy\nStream size                    : 66.4 MiB (14%)\n\n","torrent":{"xt":"urn:btih:0bb45b62379aeb205ddd17c5520028b03df82751","amp;dn":"Shameless+Season+1+Complete+MP4","amp;tr":["udp%3A%2F%2Ftracker.openbittorrent.com%3A80","udp%3A%2F%2Fopen.demonii.com%3A1337","udp%3A%2F%2Ftracker.coppersurfer.tk%3A6969","udp%3A%2F%2Fexodus.desync.com%3A6969"],"infoHash":"0bb45b62379aeb205ddd17c5520028b03df82751","infoHashBuffer":{"type":"Buffer","data":[11,180,91,98,55,154,235,32,93,221,23,197,82,0,40,176,61,248,39,81]},"announce":[],"urlList":[]}}